<?xml version="1.0" encoding="UTF-8"?><svg id="Ebene_1" xmlns="http://www.w3.org/2000/svg" xmlns:xlink="http://www.w3.org/1999/xlink" viewBox="0 0 1190.33 74.53"><defs><style>.cls-1{fill:none;}.cls-2{fill:#fff;}</style><clipPath id="clippath"><rect class="cls-1" x="-2051.07" y="-70.88" width="1443.91" height="78"/></clipPath></defs><polygon class="cls-2" points="428.65 35.72 390.53 35.72 364.02 62.22 402.89 61.47 428.65 35.72"/><polygon class="cls-2" points="308.02 34.37 319.39 23 345.59 49.21 326.31 68.49 326.26 52.61 308.02 34.37"/><polygon class="cls-2" points="71.4 73.47 56.65 53.64 91.15 52.85 128.31 13.88 157.11 25.67 110.98 73.38 71.4 73.47"/><polygon class="cls-2" points="1142.37 37.72 1104.25 37.72 1077.75 63.7 1116.62 63.7 1142.37 37.72"/><polygon class="cls-2" points="1108.95 21.42 1119.52 32 1098.41 32.06 1074.16 56.32 1063.58 45.74 1087.84 21.49 1108.95 21.42"/><polygon class="cls-2" points="185.36 73.37 192.73 65.99 167.17 40.43 134.24 73.36 185.36 73.37"/><polygon class="cls-2" points="570.95 14.39 594.94 38.38 576.1 57.22 528.21 57.13 570.95 14.39"/><polygon class="cls-2" points="762.6 64.85 808.99 18.46 745.09 18.46 721.44 43.11 740.86 43.11 762.6 64.85"/><polygon class="cls-2" points="71.57 73.55 71.57 38.58 47.26 14.27 47.95 49.92 71.57 73.55"/><polygon class="cls-2" points="863.93 64.9 839.48 40.45 858.68 21.24 907.5 21.33 863.93 64.9"/><polygon class="cls-2" points="879.65 63.21 860.63 44.19 898.61 44.07 942.23 .44 961.25 19.47 917.63 63.09 879.65 63.21"/><polygon class="cls-2" points="563.49 11.72 621.54 69.77 679.6 11.72 563.49 11.72"/><polygon class="cls-2" points="695.22 61.72 669.22 35.71 643.22 61.72 695.22 61.72"/><polygon class="cls-2" points="774.33 48.8 797.49 71.97 787.76 71.98 774.31 58.54 774.33 48.8"/><polygon class="cls-2" points="421.08 7.27 353.81 74.53 353.76 46.26 392.8 7.22 421.08 7.27"/><polygon class="cls-2" points="229.55 20.25 164.88 20.25 178.45 6.63 215.98 6.63 229.55 20.25"/><polygon class="cls-2" points="1059.05 46.25 994.38 46.25 1007.95 32.63 1045.48 32.63 1059.05 46.25"/><polygon class="cls-2" points="774.19 43.81 744.54 73.46 785.39 73.46 800.5 57.7 788.09 57.7 774.19 43.81"/><polygon class="cls-2" points="966.2 12.85 904.77 72.97 989.39 72.97 1020.72 41.64 994.99 41.64 966.2 12.85"/><polygon class="cls-2" points="473.63 73.57 541.03 6.17 448.19 6.17 413.83 41.98 442.05 41.98 473.63 73.57"/><polygon class="cls-2" points="1029.68 41.59 1017.35 41.59 1008.77 50.17 1021.35 49.92 1029.68 41.59"/><polygon class="cls-2" points="325.75 22.72 281.5 22.72 250.73 53.49 295.85 52.62 325.75 22.72"/><polygon class="cls-2" points="160.89 60.72 228.74 60.72 275.91 13.54 206.73 13.54 160.89 60.72"/><polygon class="cls-2" points="530.41 16.65 543.11 29.35 517.76 29.43 486.69 60.09 473.99 47.39 505.06 16.73 530.41 16.65"/><polygon class="cls-2" points="658.13 73.65 680.45 51.32 635.89 51.19 584.7 0 562.38 22.32 613.57 73.51 658.13 73.65"/><polygon class="cls-2" points="676.11 4.61 655.2 25.52 696.95 25.65 744.9 73.6 765.81 52.69 717.86 4.74 676.11 4.61"/><polygon class="cls-2" points="917.64 62.76 910.98 56.11 916.21 50.88 929.5 50.9 917.64 62.76"/><polygon class="cls-2" points="132.71 56.69 125.91 49.89 131.25 44.55 144.83 44.58 132.71 56.69"/><polygon class="cls-2" points="256.32 41.41 274.24 23.5 288.31 37.57 288.25 73.34 256.32 41.41"/><polygon class="cls-2" points="488.05 58.93 473.64 73.35 462.31 62.03 462.37 33.25 488.05 58.93"/><polygon class="cls-2" points="1067.16 21.05 1091.62 45.51 1072.41 63.7 1023.59 63.7 1067.16 21.05"/><polygon class="cls-2" points="770.95 34.97 808.42 72.44 845.9 34.97 770.95 34.97"/><polygon class="cls-2" points="849.23 56.24 839.65 46.66 830.06 56.24 849.23 56.24"/><polygon class="cls-2" points="143.93 73.55 130.77 60.39 117.61 73.55 143.93 73.55"/><polygon class="cls-2" points="419.9 60.72 409.94 50.76 399.98 60.72 419.9 60.72"/><polygon class="cls-2" points="273.29 35.38 229.03 35.38 198.26 65.28 243.39 65.28 273.29 35.38"/><polygon class="cls-2" points="191.12 14.05 128.15 14.05 106.15 37.05 167.22 37.05 191.12 14.05"/><polygon class="cls-2" points="0 73.53 0 38.33 27.65 38.33 62.72 73.53 0 73.53"/><polygon class="cls-2" points="1139.32 50.72 1135.66 47.06 1142.96 47.03 1151.35 38.64 1155.01 42.3 1146.62 50.69 1139.32 50.72"/><polygon class="cls-2" points="9.01 45.72 24.45 45.72 13.65 35.24 5.77 35.24 9.01 38.48 9.01 45.72"/><polygon class="cls-2" points="1190.33 44.4 1190.33 32.01 1177.94 44.34 1149.54 44.34 1149.54 56.72 1177.94 56.72 1190.33 44.4"/><polygon class="cls-2" points="1106.01 56.56 1141.17 21.4 1190.07 21.4 1153.52 56.56 1106.01 56.56"/><polygon class="cls-2" points="1122.74 63.7 1140.94 63.7 1153.6 51.05 1135.04 51.05 1122.74 63.7"/><polygon class="cls-2" points="378.01 71.72 396.21 71.72 408.87 59.06 390.31 59.06 378.01 71.72"/><polygon class="cls-2" points="535.51 47.25 521.77 47.25 512.22 56.8 526.23 56.8 535.51 47.25"/><polygon class="cls-2" points="515.75 50.96 507.41 50.96 501.61 56.76 510.11 56.76 515.75 50.96"/><polygon class="cls-2" points="408.25 13.58 419.9 13.58 428 5.48 416.12 5.48 408.25 13.58"/></svg>