<?xml version="1.0" encoding="UTF-8"?><svg id="Ebene_1" xmlns="http://www.w3.org/2000/svg" viewBox="0 0 158.95 138.29"><defs><style>.cls-1{fill:#0b0e1b;}.cls-2{fill:#ff25d8;}.cls-3{fill:#66ff7d;}.cls-4{fill:#223871;}.cls-5{fill:#6498c3;}</style></defs><polygon class="cls-5" points="92.06 12.12 79.94 0 67.82 12.12 92.06 12.12"/><polygon class="cls-1" points="96.74 35.22 17.22 35.22 33.9 18.47 80.05 18.47 96.74 35.22"/><polygon class="cls-4" points="16.91 90.34 97.68 90.34 41.18 35.58 0 35.58 16.91 52.49 16.91 90.34"/><polygon class="cls-2" points="35.52 29.58 52.02 46.08 74.97 46.08 57.82 29.58 35.52 29.58"/><polygon class="cls-2" points="150.8 125.6 132.55 125.6 119.86 138.29 138.47 137.93 150.8 125.6"/><polygon class="cls-3" points="43.51 92.03 43.51 56.99 78.6 91.86 158.95 91.86 158.95 126.9 78.6 126.9 43.51 92.03"/></svg>