<?xml version="1.0" encoding="UTF-8"?><svg id="Ebene_1" xmlns="http://www.w3.org/2000/svg" viewBox="0 0 85.94 222.15"><defs><style>.cls-1{fill:#ff25d8;}.cls-2{fill:#66ff7d;}.cls-3{fill:#223871;}.cls-4{fill:#6498c3;}.cls-5{fill:#493cff;}</style></defs><polygon class="cls-2" points="37.21 67.26 24.83 67.26 37.15 79.66 37.15 108.05 49.53 108.05 49.53 79.66 37.21 67.26"/><polygon class="cls-4" points="35.2 14.86 0 14.86 0 42.51 35.2 77.58 35.2 14.86"/><polygon class="cls-1" points="45.54 14.67 24.44 14.67 9.77 0 31.28 .42 45.54 14.67"/><polygon class="cls-5" points="51.05 106.45 .32 106.45 .32 55.72 51.05 106.45"/><polygon class="cls-5" points="50.74 105.62 .21 105.62 .21 222.15 85.94 222.15 50.74 186.73 50.74 105.62"/><polygon class="cls-3" points="71.86 190.3 36.7 155.14 36.7 106.24 71.86 142.79 71.86 190.3"/></svg>