<?xml version="1.0" encoding="UTF-8"?><svg id="Ebene_1" xmlns="http://www.w3.org/2000/svg" viewBox="0 0 101.58 263.14"><defs><style>.cls-1{fill:#ff25d8;}.cls-2{fill:#66ff7d;}.cls-3{fill:#223871;}.cls-4{fill:#6498c3;}.cls-5{fill:#493cff;}</style></defs><polygon class="cls-1" points="40.12 0 52.24 12.12 64.36 0 40.12 0"/><polygon class="cls-2" points="37.21 195.88 24.83 195.88 37.15 183.49 37.15 155.09 49.53 155.09 49.53 183.49 37.21 195.88"/><polygon class="cls-4" points="35.2 248.28 0 248.28 0 220.63 35.2 185.56 35.2 248.28"/><polygon class="cls-1" points="45.54 248.47 24.44 248.47 9.77 263.14 31.28 262.73 45.54 248.47"/><polygon class="cls-5" points="51.05 156.69 .32 156.69 .32 207.43 51.05 156.69"/><polygon class="cls-5" points="50.74 157.53 .21 157.53 .21 41 85.94 41 50.74 76.41 50.74 157.53"/><polygon class="cls-3" points="71.86 72.84 36.7 108 36.7 156.9 71.86 120.35 71.86 72.84"/><polygon class="cls-2" points="101.58 33.46 101.58 45.84 89.18 33.52 60.78 33.52 60.78 21.14 89.18 21.14 101.58 33.46"/><polygon class="cls-3" points="45.17 10.81 36.44 10.81 36.44 41.09 75.43 41.09 45.17 10.81"/></svg>