<?xml version="1.0" encoding="UTF-8"?><svg id="Ebene_1" xmlns="http://www.w3.org/2000/svg" viewBox="0 0 116.82 20.43"><defs><style>.cls-1{fill:#fff;}</style></defs><path class="cls-1" d="M17.8,19.53c.08.2.06.38-.06.53-.11.15-.27.23-.47.23h-5.55c-.28,0-.5-.07-.66-.23-.16-.15-.27-.33-.32-.53l-1.77-5.82h-.08l-2.15,5.82c-.08.2-.19.38-.34.53-.15.15-.36.23-.64.23H.57c-.2,0-.36-.07-.47-.23-.11-.15-.13-.33-.06-.53l3.78-9.63L.39,1.13c-.07-.2-.05-.4.08-.59.13-.19.29-.28.49-.28h5.44c.23,0,.43.04.6.13.18.09.29.23.34.43l1.55,5.29h.08l1.93-5.29c.13-.38.44-.57.95-.57h5.06c.2,0,.36.09.49.28.12.19.15.39.08.59l-3.44,8.76,3.78,9.63Z"/><path class="cls-1" d="M62.62,19.72c0,.38-.19.57-.57.57h-5.66c-.38,0-.57-.19-.57-.57V7.18c0-.35-.1-.59-.3-.72-.2-.13-.48-.14-.83-.04l-1.32.38v12.92c0,.38-.19.57-.57.57h-5.67c-.38,0-.57-.19-.57-.57V7.18c0-.35-.1-.59-.3-.72-.2-.13-.48-.14-.83-.04l-1.32.38v12.92c0,.38-.19.57-.57.57h-5.66c-.38,0-.57-.19-.57-.57V1.02c0-.15.06-.3.17-.45.11-.15.26-.23.43-.23l4.38-.19c.15,0,.29.06.41.17.13.11.21.25.27.4l.76,2.76,2.72-2.45c.33-.28.73-.52,1.21-.72.48-.2.93-.3,1.36-.3h.76c1.18,0,2.03.3,2.55.89.52.59.84,1.42.96,2.47l2.42-2.34c.3-.3.7-.55,1.19-.74.49-.19.95-.28,1.38-.28h.75c.7,0,1.29.11,1.76.34.46.23.83.55,1.1.96.26.42.45.91.57,1.49.11.58.17,1.22.17,1.93v14.99Z"/><path class="cls-1" d="M81.51,15.9c0,1.44-.4,2.55-1.19,3.34-.79.79-1.91,1.19-3.34,1.19h-7.36c-1.43,0-2.55-.4-3.34-1.19-.79-.79-1.19-1.91-1.19-3.34V4.65c0-1.44.4-2.55,1.19-3.34.79-.79,1.91-1.19,3.34-1.19h7.36c1.43,0,2.55.4,3.34,1.19.79.79,1.19,1.91,1.19,3.34v11.26ZM74.82,5.59c0-.15-.06-.28-.17-.39-.11-.11-.25-.17-.4-.17h-1.93c-.15,0-.28.06-.4.17-.11.11-.17.24-.17.39v9.37c0,.15.06.28.17.39.11.11.25.17.4.17h1.93c.15,0,.28-.06.4-.17.11-.11.17-.24.17-.39V5.59Z"/><path class="cls-1" d="M100.21,1.13l-3.97,18.54c-.05.15-.16.29-.32.42-.16.13-.34.19-.51.19h-8.2c-.18,0-.34-.05-.49-.15-.15-.1-.25-.24-.3-.42l-3.97-18.58c-.05-.2-.01-.4.11-.59.13-.19.31-.28.57-.28h5.29c.48,0,.76.23.83.68l1.06,7.25c.13.93.25,1.83.36,2.7.11.87.22,1.63.32,2.29.1.78.2,1.51.3,2.19h.08c.1-.68.2-1.41.3-2.19.1-.66.21-1.42.32-2.29.11-.87.23-1.77.36-2.7l1.06-7.25c.07-.45.35-.68.83-.68h5.29c.25,0,.44.09.57.28.12.19.16.38.11.59"/><path class="cls-1" d="M116.82,8.84c0,.93-.19,1.61-.57,2.02-.38.42-.92.69-1.62.81l-6.8,1.24v1.51c0,.15.06.28.17.4.11.11.25.17.4.17h7.67c.38,0,.57.19.57.57v4.04c0,.38-.19.57-.57.57l-7.67.23h-2.34c-1.61,0-2.83-.37-3.66-1.11-.83-.74-1.24-1.92-1.24-3.53V4.65c0-1.44.39-2.55,1.19-3.34.79-.79,1.91-1.19,3.34-1.19h6.61c1.43,0,2.55.4,3.34,1.19.79.79,1.19,1.91,1.19,3.34v4.19ZM110.97,5.59c0-.15-.06-.28-.17-.4-.11-.11-.25-.17-.4-.17h-2c-.15,0-.28.06-.4.17-.11.11-.17.25-.17.4v3.47l2.57-.45c.38-.08.57-.29.57-.64v-2.38Z"/><path class="cls-1" d="M20.77,6.53h12.4c.29,0,.53.24.53.53v4.7c0,.29-.24.53-.53.53h-12.4c-.29,0-.53-.24-.53-.53v-4.7c0-.29.24-.53.53-.53Z"/></svg>