<svg width="71" height="65" viewBox="0 0 71 65" fill="none" xmlns="http://www.w3.org/2000/svg">
<path d="M6.82991 2.98001C6.79991 3.22001 6.61991 3.69001 6.61991 3.69001C6.05991 3.84001 4.96991 4.19001 4.40991 5.81001C3.93991 6.69001 3.58991 7.14001 3.49991 7.14001C3.16991 7.11001 2.28991 7.17001 1.75991 8.26001C1.78991 8.88001 2.11991 9.79001 2.31991 10C2.43991 10.47 2.43991 11.09 2.87991 11.33C2.99991 11.83 3.14991 12.21 2.99991 12.54C2.81991 12.98 2.08991 14.22 2.16991 14.6C2.25991 14.98 2.51991 15.6 1.86991 16.4C1.21991 17.25 -0.0100928 18.32 0.719907 19.79C0.959907 20.08 1.01991 20.35 1.04991 20.59C1.16991 20.94 2.28991 23.75 6.03991 22.92C6.26991 23.01 6.09991 23.42 6.09991 23.42C7.27991 22.86 8.42991 22.33 8.57991 22.18C8.90991 22.36 8.93991 22.45 8.93991 22.56C9.16991 22.33 9.31991 21.79 9.90991 21.03C10.1799 21.26 10.3499 21.29 10.4999 20.41C10.5599 19.46 10.4999 19.2 10.6499 19.14C10.7999 19.08 11.2699 18.93 11.2699 19.35C11.2699 19.79 10.6199 21.53 10.5899 22.15C10.5599 22.89 10.1499 25.96 9.93991 26.51C9.66991 27.25 8.75991 31.88 8.66991 32.29C8.52991 32.82 7.28991 34.31 7.54991 35.15C7.76991 35.99 7.41991 36.17 7.23991 35.95C7.05991 35.73 6.79991 37.76 6.79991 37.76C6.79991 37.76 5.68991 36.66 5.68991 36.48C5.68991 36.3 5.99991 37.81 5.99991 38.25C5.99991 38.69 5.72991 40.68 5.72991 40.9C5.72991 41.12 5.01991 40.59 5.01991 40.59C5.01991 40.59 5.36991 42 5.36991 42.31C5.36991 42.62 5.45991 44.3 4.83991 43.99C4.21991 43.68 4.52991 44.65 4.56991 44.87C4.60991 45.09 4.60991 48.81 4.25991 49.47C4.16991 50.44 4.34991 51.1 4.34991 51.37C4.34991 51.64 3.06991 54.95 3.28991 55.22C3.06991 55.66 2.79991 56.86 3.01991 57.43C2.92991 58.27 2.92991 58.84 2.92991 58.84C2.48991 59.46 1.64991 60.92 1.42991 61.09C1.20991 61.27 0.989907 64.01 4.47991 63.88C6.11991 63.57 6.99991 62.69 7.22991 61.76C7.13991 61.23 6.78991 61.5 6.56991 61.58C6.34991 61.67 5.45991 62.33 5.23991 62.33C4.79991 62.15 4.08991 61.84 3.73991 61.84C4.26991 61.18 5.01991 61.04 5.28991 60.55C5.55991 60.07 6.12991 59.18 6.25991 58.47C6.38991 57.54 6.47991 56.66 6.69991 56.66C6.91991 56.61 7.53991 57.5 7.40991 58.65C7.49991 59.71 7.97991 59.76 7.97991 59.76C7.97991 59.76 8.55991 58.3 8.72991 58.21C8.81991 57.95 9.16991 57.06 8.41991 55.64C8.10991 54.18 8.01991 52.28 8.41991 51.53C8.81991 50.78 10.0099 47.9 10.0099 47.28C10.3199 46.53 11.4699 45.16 11.6899 44.89C11.9099 44.63 11.5099 44.23 11.9599 43.96C12.3999 43.7 13.8599 41.66 13.8599 41.35C13.8599 41.04 13.2799 41.3 13.1599 41.39C13.0299 41.48 13.3299 40.64 13.5999 40.42C13.8699 40.2 14.1299 39.76 14.2599 39.76C14.3899 39.76 14.0799 38.43 14.2199 38.35C14.3499 38.26 14.6999 37.2 14.9299 36.94C15.1499 36.5 16.2599 34.55 16.6999 34.86C17.2299 34.42 17.3199 32.6 17.4099 32.47C17.4999 32.34 18.0299 32.43 18.1199 32.6C18.2099 32.78 18.7399 30.17 18.7399 29.86C18.9099 29.15 19.4899 26.67 19.4899 26.67C20.6799 27.64 23.2099 31.76 23.8199 33.92C23.4199 34.94 22.5399 37.28 22.4099 37.5C22.2799 37.72 21.7499 38.47 21.7499 38.61C21.7499 38.75 21.6999 37.5 21.6999 37.5C21.6999 37.5 21.1299 38.25 21.0399 38.56C20.9499 38.87 20.2899 40.51 20.1999 40.73C20.1099 40.95 19.7999 39.98 19.7599 40.11C19.7099 40.24 19.1899 41.7 19.0099 41.97C18.8299 42.24 17.8999 44 17.5999 44.36C17.3299 45.07 15.2099 48.3 14.6799 48.74C14.1499 49.18 13.3099 51.92 14.3299 53.6C15.3499 55.28 16.0499 57.94 16.0499 58.2C16.0499 58.46 16.7599 60.06 16.7599 60.28C16.7599 60.5 18.9299 62.4 20.6999 61.52L21.1399 61.3C21.1399 61.3 21.6699 61.48 22.4199 61.21C23.1699 60.95 24.8099 59.75 24.9399 58.96C24.6699 58.69 24.2299 58.61 23.2099 58.96C23.4699 57.63 23.4299 57.01 23.0799 57.01C22.7299 57.01 22.1499 57.06 22.0599 57.32C21.9699 57.58 21.7499 58.34 21.5299 58.38C21.3099 58.43 20.1999 57.89 19.9399 58.03C20.1599 56.88 20.3399 55.02 19.1899 53.61C18.2199 52.19 17.5499 51.13 18.7899 49.94C20.1199 49.06 22.8999 47.82 23.5199 47.07C23.6999 46.49 23.2999 46.49 23.2999 46.49C23.2999 46.49 25.0199 46.14 25.9499 46.05C26.8799 45.96 27.8099 45.21 27.8499 45.03C27.8999 44.85 26.4399 44.76 26.2999 44.76C27.5799 43.83 30.8099 41.67 30.9899 41.49C31.1599 41.31 30.2799 40.83 30.6799 40.65C31.0799 40.47 32.2299 39.94 32.1799 39.76C32.0899 39.58 35.1399 39.85 35.3599 39.8C35.6199 39.76 36.0199 38.47 36.5499 38.08C37.2599 37.9 40.8399 37.86 40.8899 38.08C40.9399 38.3 39.6999 39.85 39.3399 40.2C38.9899 40.55 36.5099 43.7 36.3799 43.92C36.2399 44.14 35.5399 45.25 35.5799 45.42C35.6199 45.6 35.8899 47.99 35.5399 48.52C35.5399 49.41 36.1599 52.15 36.0699 52.37C35.9799 52.59 37.2599 56.48 37.2199 57.01C37.1799 57.54 36.7799 59.93 37.2199 60.15C37.6599 60.37 37.8399 60.5 37.8399 60.5C37.8399 60.5 35.4499 60.9 34.9199 61.03C34.3899 61.16 32.0899 61.21 31.4199 61.34C30.7599 61.47 28.4599 62.4 28.2799 62.49C28.0999 62.58 28.1499 62.89 28.4099 63.02C28.6699 63.15 29.5599 63.42 29.7399 63.2C29.9199 62.98 29.9199 63.82 30.4499 63.68C30.9799 63.55 32.0499 63.42 32.1799 63.42C32.3099 63.42 32.5799 64.08 33.3699 63.77C34.1699 63.46 36.6399 63.28 36.9599 63.11C37.2699 62.93 39.9199 63.24 40.4499 63.47C40.9899 63.69 43.9399 63.34 44.2499 62.81C44.5599 62.28 44.7399 61.79 44.7399 61.79C44.7399 61.79 45.9799 61.53 45.7599 60.07C45.5399 58.61 45.3599 57.5 45.6699 57.55C45.9799 57.6 45.9799 56.54 45.8899 56.13C45.7999 55.74 44.9199 52.77 44.9599 52.28C44.9999 51.79 45.1399 51.17 45.1399 51.17C45.1399 51.17 45.4499 51.52 45.6199 51.52C45.7899 51.52 44.5199 48.38 45.2199 47.67C45.9299 46.96 46.1899 47.09 46.8499 46.74C47.5199 46.39 48.6599 45.85 49.1999 46.43C49.7299 47 48.8899 48.33 52.5999 50.01C56.1899 51.82 60.1599 54.21 60.9999 56.78C61.3099 57.75 61.1399 57.88 61.1399 57.88L61.8899 58.24C61.8399 58.37 61.2699 59.65 61.2699 59.92C61.2699 60.19 60.7399 62.18 60.2999 62.27C59.8599 62.36 57.2999 62.31 56.9799 62.54C56.6699 62.76 56.2699 63.6 56.2699 63.6C56.2699 63.6 56.9299 64 57.6799 63.91C58.3399 64.04 60.0699 64.62 61.6599 63.43C62.4099 63.34 61.7999 64.05 62.8999 63.52C63.9999 62.99 63.9199 62.19 64.4899 61.49C65.0699 60.78 66.6999 59.72 67.0599 59.1C67.4199 58.48 68.6499 56.58 68.9599 56.22C69.2699 55.87 70.4199 54.41 69.3999 53.43C69.7099 52.85 69.0399 52.28 68.0299 51.71C67.0599 51.05 66.3899 50.16 66.3099 49.9C66.2199 49.63 66.5299 49.68 66.5299 49.55C66.5299 49.42 64.8499 48.14 64.8499 48.14L63.6999 47.56L61.4899 45.7C61.4899 45.7 62.3299 45.66 62.5499 45.74C62.7699 45.83 61.3499 44.9 60.9099 44.55C60.4699 44.2 60.3799 43.97 60.3799 43.97L60.9599 43.75C60.9599 43.75 59.7199 43.09 59.2799 42.56C58.8399 42.03 57.9499 41.01 58.6199 40.04C59.0199 38.36 59.3299 36.81 59.4599 36.72C59.5899 36.63 59.8199 36.99 59.8599 37.16C59.8999 37.34 60.6099 35.66 60.4299 35.04C60.2499 34.42 60.2099 31.32 60.2499 31.06C60.2899 30.79 61.0899 29.82 61.2699 30.04C61.4499 30.26 60.9199 28.14 60.9199 27.83C60.9199 27.52 60.6999 26.42 61.0099 26.81C61.3199 27.21 61.2299 25.93 60.8299 25.22C60.4299 24.51 60.4799 23.54 60.4799 23.54C60.4799 23.54 61.2699 23.49 59.7699 21.82C59.5099 21.07 59.7299 20.76 59.7299 20.76C59.7299 20.76 54.1599 18.19 52.8299 17.05C51.4499 16.3 50.7899 15.85 50.0899 15.77C49.3799 15.68 44.3399 14.67 43.1399 13.82C41.9499 12.98 38.5899 9.97001 34.7399 8.73001C31.1099 7.63001 29.2999 7.27001 29.2999 7.27001L29.6099 7.09001C29.6099 7.09001 26.3799 7.00001 26.1599 6.65001C25.9399 6.30001 26.4699 6.08001 26.4699 6.08001L26.9999 5.90001C26.9999 5.90001 26.0299 5.81001 25.7199 5.81001C25.4099 5.81001 22.4499 5.50001 22.1399 5.19001C21.8299 4.88001 21.9599 4.75001 22.2299 4.75001C22.4999 4.75001 23.1199 4.71001 23.1199 4.53001C23.1199 4.35001 23.2499 4.26001 22.3199 4.22001C21.3899 4.17001 19.3099 3.64001 18.9099 3.42001C18.5099 3.20001 18.4199 2.98001 18.6899 2.94001C18.9499 2.89001 18.4699 2.63001 18.0299 2.41001C17.5899 2.19001 14.8899 1.48001 14.5799 0.910007C14.2699 0.340007 12.2299 0.510007 11.8799 0.550007C11.5299 0.600007 9.88991 0.910007 9.88991 0.910007L9.39991 0.820007C9.39991 0.820007 6.91991 2.03001 6.83991 2.97001" fill="#1D1D1B"/>
<path d="M6.82991 2.98001C6.79991 3.22001 6.61991 3.69001 6.61991 3.69001C6.05991 3.84001 4.96991 4.19001 4.40991 5.81001C3.93991 6.69001 3.58991 7.14001 3.49991 7.14001C3.16991 7.11001 2.28991 7.17001 1.75991 8.26001C1.78991 8.88001 2.11991 9.79001 2.31991 10C2.43991 10.47 2.43991 11.09 2.87991 11.33C2.99991 11.83 3.14991 12.21 2.99991 12.54C2.81991 12.98 2.08991 14.22 2.16991 14.6C2.25991 14.98 2.51991 15.6 1.86991 16.4C1.21991 17.25 -0.0100928 18.32 0.719907 19.79C0.959907 20.08 1.01991 20.35 1.04991 20.59C1.16991 20.94 2.28991 23.75 6.03991 22.92C6.26991 23.01 6.09991 23.42 6.09991 23.42C7.27991 22.86 8.42991 22.33 8.57991 22.18C8.90991 22.36 8.93991 22.45 8.93991 22.56C9.16991 22.33 9.31991 21.79 9.90991 21.03C10.1799 21.26 10.3499 21.29 10.4999 20.41C10.5599 19.46 10.4999 19.2 10.6499 19.14C10.7999 19.08 11.2699 18.93 11.2699 19.35C11.2699 19.79 10.6199 21.53 10.5899 22.15C10.5599 22.89 10.1499 25.96 9.93991 26.51C9.66991 27.25 8.75991 31.88 8.66991 32.29C8.52991 32.82 7.28991 34.31 7.54991 35.15C7.76991 35.99 7.41991 36.17 7.23991 35.95C7.05991 35.73 6.79991 37.76 6.79991 37.76C6.79991 37.76 5.68991 36.66 5.68991 36.48C5.68991 36.3 5.99991 37.81 5.99991 38.25C5.99991 38.69 5.72991 40.68 5.72991 40.9C5.72991 41.12 5.01991 40.59 5.01991 40.59C5.01991 40.59 5.36991 42 5.36991 42.31C5.36991 42.62 5.45991 44.3 4.83991 43.99C4.21991 43.68 4.52991 44.65 4.56991 44.87C4.60991 45.09 4.60991 48.81 4.25991 49.47C4.16991 50.44 4.34991 51.1 4.34991 51.37C4.34991 51.64 3.06991 54.95 3.28991 55.22C3.06991 55.66 2.79991 56.86 3.01991 57.43C2.92991 58.27 2.92991 58.84 2.92991 58.84C2.48991 59.46 1.64991 60.92 1.42991 61.09C1.20991 61.27 0.989907 64.01 4.47991 63.88C6.11991 63.57 6.99991 62.69 7.22991 61.76C7.13991 61.23 6.78991 61.5 6.56991 61.58C6.34991 61.67 5.45991 62.33 5.23991 62.33C4.79991 62.15 4.08991 61.84 3.73991 61.84C4.26991 61.18 5.01991 61.04 5.28991 60.55C5.55991 60.07 6.12991 59.18 6.25991 58.47C6.38991 57.54 6.47991 56.66 6.69991 56.66C6.91991 56.61 7.53991 57.5 7.40991 58.65C7.49991 59.71 7.97991 59.76 7.97991 59.76C7.97991 59.76 8.55991 58.3 8.72991 58.21C8.81991 57.95 9.16991 57.06 8.41991 55.64C8.10991 54.18 8.01991 52.28 8.41991 51.53C8.81991 50.78 10.0099 47.9 10.0099 47.28C10.3199 46.53 11.4699 45.16 11.6899 44.89C11.9099 44.63 11.5099 44.23 11.9599 43.96C12.3999 43.7 13.8599 41.66 13.8599 41.35C13.8599 41.04 13.2799 41.3 13.1599 41.39C13.0299 41.48 13.3299 40.64 13.5999 40.42C13.8699 40.2 14.1299 39.76 14.2599 39.76C14.3899 39.76 14.0799 38.43 14.2199 38.35C14.3499 38.26 14.6999 37.2 14.9299 36.94C15.1499 36.5 16.2599 34.55 16.6999 34.86C17.2299 34.42 17.3199 32.6 17.4099 32.47C17.4999 32.34 18.0299 32.43 18.1199 32.6C18.2099 32.78 18.7399 30.17 18.7399 29.86C18.9099 29.15 19.4899 26.67 19.4899 26.67C20.6799 27.64 23.2099 31.76 23.8199 33.92C23.4199 34.94 22.5399 37.28 22.4099 37.5C22.2799 37.72 21.7499 38.47 21.7499 38.61C21.7499 38.75 21.6999 37.5 21.6999 37.5C21.6999 37.5 21.1299 38.25 21.0399 38.56C20.9499 38.87 20.2899 40.51 20.1999 40.73C20.1099 40.95 19.7999 39.98 19.7599 40.11C19.7099 40.24 19.1899 41.7 19.0099 41.97C18.8299 42.24 17.8999 44 17.5999 44.36C17.3299 45.07 15.2099 48.3 14.6799 48.74C14.1499 49.18 13.3099 51.92 14.3299 53.6C15.3499 55.28 16.0499 57.94 16.0499 58.2C16.0499 58.46 16.7599 60.06 16.7599 60.28C16.7599 60.5 18.9299 62.4 20.6999 61.52L21.1399 61.3C21.1399 61.3 21.6699 61.48 22.4199 61.21C23.1699 60.95 24.8099 59.75 24.9399 58.96C24.6699 58.69 24.2299 58.61 23.2099 58.96C23.4699 57.63 23.4299 57.01 23.0799 57.01C22.7299 57.01 22.1499 57.06 22.0599 57.32C21.9699 57.58 21.7499 58.34 21.5299 58.38C21.3099 58.43 20.1999 57.89 19.9399 58.03C20.1599 56.88 20.3399 55.02 19.1899 53.61C18.2199 52.19 17.5499 51.13 18.7899 49.94C20.1199 49.06 22.8999 47.82 23.5199 47.07C23.6999 46.49 23.2999 46.49 23.2999 46.49C23.2999 46.49 25.0199 46.14 25.9499 46.05C26.8799 45.96 27.8099 45.21 27.8499 45.03C27.8999 44.85 26.4399 44.76 26.2999 44.76C27.5799 43.83 30.8099 41.67 30.9899 41.49C31.1599 41.31 30.2799 40.83 30.6799 40.65C31.0799 40.47 32.2299 39.94 32.1799 39.76C32.0899 39.58 35.1399 39.85 35.3599 39.8C35.6199 39.76 36.0199 38.47 36.5499 38.08C37.2599 37.9 40.8399 37.86 40.8899 38.08C40.9399 38.3 39.6999 39.85 39.3399 40.2C38.9899 40.55 36.5099 43.7 36.3799 43.92C36.2399 44.14 35.5399 45.25 35.5799 45.42C35.6199 45.6 35.8899 47.99 35.5399 48.52C35.5399 49.41 36.1599 52.15 36.0699 52.37C35.9799 52.59 37.2599 56.48 37.2199 57.01C37.1799 57.54 36.7799 59.93 37.2199 60.15C37.6599 60.37 37.8399 60.5 37.8399 60.5C37.8399 60.5 35.4499 60.9 34.9199 61.03C34.3899 61.16 32.0899 61.21 31.4199 61.34C30.7599 61.47 28.4599 62.4 28.2799 62.49C28.0999 62.58 28.1499 62.89 28.4099 63.02C28.6699 63.15 29.5599 63.42 29.7399 63.2C29.9199 62.98 29.9199 63.82 30.4499 63.68C30.9799 63.55 32.0499 63.42 32.1799 63.42C32.3099 63.42 32.5799 64.08 33.3699 63.77C34.1699 63.46 36.6399 63.28 36.9599 63.11C37.2699 62.93 39.9199 63.24 40.4499 63.47C40.9899 63.69 43.9399 63.34 44.2499 62.81C44.5599 62.28 44.7399 61.79 44.7399 61.79C44.7399 61.79 45.9799 61.53 45.7599 60.07C45.5399 58.61 45.3599 57.5 45.6699 57.55C45.9799 57.6 45.9799 56.54 45.8899 56.13C45.7999 55.74 44.9199 52.77 44.9599 52.28C44.9999 51.79 45.1399 51.17 45.1399 51.17C45.1399 51.17 45.4499 51.52 45.6199 51.52C45.7899 51.52 44.5199 48.38 45.2199 47.67C45.9299 46.96 46.1899 47.09 46.8499 46.74C47.5199 46.39 48.6599 45.85 49.1999 46.43C49.7299 47 48.8899 48.33 52.5999 50.01C56.1899 51.82 60.1599 54.21 60.9999 56.78C61.3099 57.75 61.1399 57.88 61.1399 57.88L61.8899 58.24C61.8399 58.37 61.2699 59.65 61.2699 59.92C61.2699 60.19 60.7399 62.18 60.2999 62.27C59.8599 62.36 57.2999 62.31 56.9799 62.54C56.6699 62.76 56.2699 63.6 56.2699 63.6C56.2699 63.6 56.9299 64 57.6799 63.91C58.3399 64.04 60.0699 64.62 61.6599 63.43C62.4099 63.34 61.7999 64.05 62.8999 63.52C63.9999 62.99 63.9199 62.19 64.4899 61.49C65.0699 60.78 66.6999 59.72 67.0599 59.1C67.4199 58.48 68.6499 56.58 68.9599 56.22C69.2699 55.87 70.4199 54.41 69.3999 53.43C69.7099 52.85 69.0399 52.28 68.0299 51.71C67.0599 51.05 66.3899 50.16 66.3099 49.9C66.2199 49.63 66.5299 49.68 66.5299 49.55C66.5299 49.42 64.8499 48.14 64.8499 48.14L63.6999 47.56L61.4899 45.7C61.4899 45.7 62.3299 45.66 62.5499 45.74C62.7699 45.83 61.3499 44.9 60.9099 44.55C60.4699 44.2 60.3799 43.97 60.3799 43.97L60.9599 43.75C60.9599 43.75 59.7199 43.09 59.2799 42.56C58.8399 42.03 57.9499 41.01 58.6199 40.04C59.0199 38.36 59.3299 36.81 59.4599 36.72C59.5899 36.63 59.8199 36.99 59.8599 37.16C59.8999 37.34 60.6099 35.66 60.4299 35.04C60.2499 34.42 60.2099 31.32 60.2499 31.06C60.2899 30.79 61.0899 29.82 61.2699 30.04C61.4499 30.26 60.9199 28.14 60.9199 27.83C60.9199 27.52 60.6999 26.42 61.0099 26.81C61.3199 27.21 61.2299 25.93 60.8299 25.22C60.4299 24.51 60.4799 23.54 60.4799 23.54C60.4799 23.54 61.2699 23.49 59.7699 21.82C59.5099 21.07 59.7299 20.76 59.7299 20.76C59.7299 20.76 54.1599 18.19 52.8299 17.05C51.4499 16.3 50.7899 15.85 50.0899 15.77C49.3799 15.68 44.3399 14.67 43.1399 13.82C41.9499 12.98 38.5899 9.97001 34.7399 8.73001C31.1099 7.63001 29.2999 7.27001 29.2999 7.27001L29.6099 7.09001C29.6099 7.09001 26.3799 7.00001 26.1599 6.65001C25.9399 6.30001 26.4699 6.08001 26.4699 6.08001L26.9999 5.90001C26.9999 5.90001 26.0299 5.81001 25.7199 5.81001C25.4099 5.81001 22.4499 5.50001 22.1399 5.19001C21.8299 4.88001 21.9599 4.75001 22.2299 4.75001C22.4999 4.75001 23.1199 4.71001 23.1199 4.53001C23.1199 4.35001 23.2499 4.26001 22.3199 4.22001C21.3899 4.17001 19.3099 3.64001 18.9099 3.42001C18.5099 3.20001 18.4199 2.98001 18.6899 2.94001C18.9499 2.89001 18.4699 2.63001 18.0299 2.41001C17.5899 2.19001 14.8899 1.48001 14.5799 0.910007C14.2699 0.340007 12.2299 0.510007 11.8799 0.550007C11.5299 0.600007 9.88991 0.910007 9.88991 0.910007L9.39991 0.820007C9.39991 0.820007 6.91991 2.03001 6.83991 2.97001" stroke="#66FF7D" stroke-miterlimit="10"/>
</svg>
