<?xml version="1.0" encoding="UTF-8"?><svg id="Ebene_1" xmlns="http://www.w3.org/2000/svg" viewBox="0 0 70.33 64.7"><defs><style>.cls-1{fill:#1d1d1b;stroke:#0b0e1b;stroke-miterlimit:10;}.cls-2{fill:#fff;}</style></defs><path class="cls-1" d="M6.83,2.98c-.03.24-.21.71-.21.71-.56.15-1.65.5-2.21,2.12-.47.88-.82,1.33-.91,1.33-.33-.03-1.21.03-1.74,1.12.03.62.36,1.53.56,1.74.12.47.12,1.09.56,1.33.12.5.27.88.12,1.21-.18.44-.91,1.68-.83,2.06.09.38.35,1-.3,1.8-.65.85-1.88,1.92-1.15,3.39.24.29.3.56.33.8.12.35,1.24,3.16,4.99,2.33.23.09.06.5.06.5,1.18-.56,2.33-1.09,2.48-1.24.33.18.36.27.36.38.23-.23.38-.77.97-1.53.27.23.44.26.59-.62.06-.95,0-1.21.15-1.27.15-.06.62-.21.62.21,0,.44-.65,2.18-.68,2.8-.03.74-.44,3.81-.65,4.36-.27.74-1.18,5.37-1.27,5.78-.14.53-1.38,2.02-1.12,2.86.22.84-.13,1.02-.31.8-.18-.22-.44,1.81-.44,1.81,0,0-1.11-1.1-1.11-1.28s.31,1.33.31,1.77-.27,2.43-.27,2.65-.71-.31-.71-.31c0,0,.35,1.41.35,1.72s.09,1.99-.53,1.68c-.62-.31-.31.66-.27.88.04.22.04,3.94-.31,4.6-.09.97.09,1.63.09,1.9s-1.28,3.58-1.06,3.85c-.22.44-.49,1.64-.27,2.21-.09.84-.09,1.41-.09,1.41-.44.62-1.28,2.08-1.5,2.25-.22.18-.44,2.92,3.05,2.79,1.64-.31,2.52-1.19,2.75-2.12-.09-.53-.44-.26-.66-.18-.22.09-1.11.75-1.33.75-.44-.18-1.15-.49-1.5-.49.53-.66,1.28-.8,1.55-1.29.27-.48.84-1.37.97-2.08.13-.93.22-1.81.44-1.81.22-.05.84.84.71,1.99.09,1.06.57,1.11.57,1.11,0,0,.58-1.46.75-1.55.09-.26.44-1.15-.31-2.57-.31-1.46-.4-3.36,0-4.11.4-.75,1.59-3.63,1.59-4.25.31-.75,1.46-2.12,1.68-2.39.22-.26-.18-.66.27-.93.44-.26,1.9-2.3,1.9-2.61s-.58-.05-.7.04c-.13.09.17-.75.44-.97.27-.22.53-.66.66-.66s-.18-1.33-.04-1.41c.13-.09.48-1.15.71-1.41.22-.44,1.33-2.39,1.77-2.08.53-.44.62-2.26.71-2.39.09-.13.62-.04.71.13.09.18.62-2.43.62-2.74.17-.71.75-3.19.75-3.19,1.19.97,3.72,5.09,4.33,7.25-.4,1.02-1.28,3.36-1.41,3.58-.13.22-.66.97-.66,1.11s-.05-1.11-.05-1.11c0,0-.57.75-.66,1.06-.09.31-.75,1.95-.84,2.17-.09.22-.4-.75-.44-.62-.05.13-.57,1.59-.75,1.86-.18.27-1.11,2.03-1.41,2.39-.27.71-2.39,3.94-2.92,4.38-.53.44-1.37,3.18-.35,4.86,1.02,1.68,1.72,4.34,1.72,4.6s.71,1.86.71,2.08,2.17,2.12,3.94,1.24l.44-.22s.53.18,1.28-.09c.75-.26,2.39-1.46,2.52-2.25-.27-.27-.71-.35-1.73,0,.26-1.33.22-1.95-.13-1.95s-.93.05-1.02.31c-.09.26-.31,1.02-.53,1.06-.22.05-1.33-.49-1.59-.35.22-1.15.4-3.01-.75-4.42-.97-1.42-1.64-2.48-.4-3.67,1.33-.88,4.11-2.12,4.73-2.87.18-.58-.22-.58-.22-.58,0,0,1.72-.35,2.65-.44.93-.09,1.86-.84,1.9-1.02.05-.18-1.41-.27-1.55-.27,1.28-.93,4.51-3.09,4.69-3.27.17-.18-.71-.66-.31-.84.4-.18,1.55-.71,1.5-.89-.09-.18,2.96.09,3.18.04.26-.04.66-1.33,1.19-1.72.71-.18,4.29-.22,4.34,0,.05.22-1.19,1.77-1.55,2.12-.35.35-2.83,3.5-2.96,3.72-.14.22-.84,1.33-.8,1.5.04.18.31,2.57-.04,3.1,0,.89.62,3.63.53,3.85-.09.22,1.19,4.11,1.15,4.64-.04.53-.44,2.92,0,3.14.44.22.62.35.62.35,0,0-2.39.4-2.92.53-.53.13-2.83.18-3.5.31-.66.13-2.96,1.06-3.14,1.15-.18.09-.13.4.13.53.26.13,1.15.4,1.33.18.18-.22.18.62.71.48.53-.13,1.6-.26,1.73-.26s.4.66,1.19.35c.8-.31,3.27-.49,3.59-.66.31-.18,2.96.13,3.49.36.54.22,3.49-.13,3.8-.66.31-.53.49-1.02.49-1.02,0,0,1.24-.26,1.02-1.72-.22-1.46-.4-2.57-.09-2.52.31.05.31-1.01.22-1.42-.09-.39-.97-3.36-.93-3.85.04-.49.18-1.11.18-1.11,0,0,.31.35.48.35s-1.1-3.14-.4-3.85c.71-.71.97-.58,1.63-.93.67-.35,1.81-.89,2.35-.31.53.57-.31,1.9,3.4,3.58,3.59,1.81,7.56,4.2,8.4,6.77.31.97.14,1.1.14,1.1l.75.36c-.05.13-.62,1.41-.62,1.68s-.53,2.26-.97,2.35c-.44.09-3,.04-3.32.27-.31.22-.71,1.06-.71,1.06,0,0,.66.4,1.41.31.66.13,2.39.71,3.98-.48.75-.09.14.62,1.24.09,1.1-.53,1.02-1.33,1.59-2.03.58-.71,2.21-1.77,2.57-2.39s1.59-2.52,1.9-2.88c.31-.35,1.46-1.81.44-2.79.31-.58-.36-1.15-1.37-1.72-.97-.66-1.64-1.55-1.72-1.81-.09-.27.22-.22.22-.35s-1.68-1.41-1.68-1.41l-1.15-.58-2.21-1.86s.84-.04,1.06.04c.22.09-1.2-.84-1.64-1.19-.44-.35-.53-.58-.53-.58l.58-.22s-1.24-.66-1.68-1.19c-.44-.53-1.33-1.55-.66-2.52.4-1.68.71-3.23.84-3.32.13-.09.36.27.4.44.04.18.75-1.5.57-2.12-.18-.62-.22-3.72-.18-3.98.04-.27.84-1.24,1.02-1.02.18.22-.35-1.9-.35-2.21s-.22-1.41.09-1.02c.31.4.22-.88-.18-1.59-.4-.71-.35-1.68-.35-1.68,0,0,.79-.05-.71-1.72-.26-.75-.04-1.06-.04-1.06,0,0-5.57-2.57-6.9-3.71-1.38-.75-2.04-1.2-2.74-1.28-.71-.09-5.75-1.1-6.95-1.95-1.19-.84-4.55-3.85-8.4-5.09-3.63-1.1-5.44-1.46-5.44-1.46l.31-.18s-3.23-.09-3.45-.44c-.22-.35.31-.57.31-.57l.53-.18s-.97-.09-1.28-.09-3.27-.31-3.58-.62c-.31-.31-.18-.44.09-.44s.89-.04.89-.22.13-.27-.8-.31c-.93-.05-3.01-.58-3.41-.8-.4-.22-.49-.44-.22-.48.26-.05-.22-.31-.66-.53-.44-.22-3.14-.93-3.45-1.5-.31-.57-2.35-.4-2.7-.36-.35.05-1.99.36-1.99.36l-.49-.09s-2.48,1.21-2.56,2.15"/><path class="cls-2" d="M44.17,57.22c.03.06.03.11.01.15-.02.05-.06.07-.12.07l-1.68.12c-.05,0-.09,0-.13-.04-.04-.03-.06-.06-.08-.1l-1.01-2.43h-.02s-.7,2.55-.7,2.55c-.01.04-.03.08-.07.12-.03.04-.07.06-.12.06l-1.64.12c-.06,0-.1-.01-.13-.05-.02-.04-.03-.09,0-.15l1.16-3.81-1.54-3.29c-.03-.06-.03-.1,0-.15.02-.04.06-.07.12-.07l1.66-.12c.1,0,.18.04.22.15l.87,2.17h.02l.59-2.28c.03-.11.09-.17.2-.17l1.62-.12c.05,0,.1.01.13.05.03.04.04.09.02.15l-1.06,3.48,1.69,3.6Z"/></svg>