<?xml version="1.0" encoding="UTF-8"?><svg id="Ebene_2" xmlns="http://www.w3.org/2000/svg" viewBox="0 0 43.69 40.14"><defs><style>.cls-1{fill:#fff;}.cls-2{fill:#6498c3;}</style></defs><g id="Ebene_1-2"><path class="cls-2" d="M3.99,1.56c-.02.15-.13.45-.13.45-.35.09-1.04.32-1.39,1.34-.3.56-.52.84-.58.84-.21-.02-.76.02-1.1.7.02.39.22.97.35,1.1.08.3.08.69.35.84.08.32.17.56.08.76-.11.28-.58,1.06-.52,1.3.06.24.22.63-.19,1.13-.41.54-1.19,1.21-.73,2.14.15.18.19.35.21.5.07.22.78,1.99,3.14,1.47.15.06.04.32.04.32.74-.35,1.47-.69,1.56-.78.21.11.22.17.22.24.15-.15.24-.48.61-.97.17.15.28.17.37-.39.04-.6,0-.76.09-.8.09-.04.39-.13.39.13,0,.28-.41,1.37-.43,1.76-.02.46-.28,2.4-.41,2.75-.17.47-.74,3.38-.8,3.64-.09.33-.87,1.27-.71,1.8.14.53-.08.64-.19.5-.11-.14-.28,1.14-.28,1.14,0,0-.7-.7-.7-.81s.2.84.2,1.12-.17,1.53-.17,1.67-.45-.19-.45-.19c0,0,.22.89.22,1.09s.06,1.25-.33,1.06c-.39-.19-.2.42-.17.56.03.14.03,2.48-.19,2.9-.06.61.05,1.03.05,1.2s-.81,2.26-.67,2.42c-.14.28-.31,1.03-.17,1.39-.06.53-.06.89-.06.89-.28.39-.81,1.31-.95,1.42-.14.11-.28,1.84,1.92,1.76,1.03-.19,1.59-.75,1.73-1.34-.06-.34-.28-.17-.42-.11-.14.06-.7.47-.84.47-.28-.11-.72-.31-.95-.31.33-.42.81-.5.98-.81.17-.3.53-.86.61-1.31.08-.59.14-1.14.28-1.14.14-.03.53.53.45,1.25.05.67.36.7.36.7,0,0,.36-.92.47-.98.05-.17.28-.72-.2-1.62-.19-.92-.25-2.12,0-2.59.25-.47,1-2.29,1-2.68.2-.47.92-1.34,1.06-1.5.14-.17-.11-.42.17-.59.28-.17,1.2-1.45,1.2-1.64s-.36-.03-.44.03c-.08.06.11-.47.28-.61.17-.14.34-.42.42-.42s-.11-.84-.03-.89c.08-.06.3-.72.45-.89.14-.28.84-1.51,1.11-1.31.34-.28.39-1.42.45-1.5.06-.08.39-.03.45.08.06.11.39-1.53.39-1.73.11-.45.47-2.01.47-2.01.75.61,2.34,3.21,2.73,4.57-.25.64-.81,2.12-.89,2.26-.08.14-.42.61-.42.7s-.03-.7-.03-.7c0,0-.36.47-.42.67-.06.2-.47,1.23-.53,1.37-.05.14-.25-.47-.28-.39-.03.08-.36,1-.47,1.17-.11.17-.7,1.28-.89,1.51-.17.45-1.51,2.48-1.84,2.76-.33.28-.86,2.01-.22,3.06.64,1.06,1.09,2.73,1.09,2.9s.45,1.17.45,1.31,1.37,1.34,2.48.78l.28-.14s.33.11.81-.06c.47-.17,1.5-.92,1.59-1.42-.17-.17-.45-.22-1.09,0,.17-.84.14-1.23-.08-1.23s-.59.03-.64.2c-.06.17-.2.64-.34.67-.14.03-.84-.31-1-.22.14-.72.25-1.9-.47-2.79-.61-.89-1.03-1.56-.25-2.31.84-.56,2.59-1.34,2.98-1.81.11-.36-.14-.36-.14-.36,0,0,1.09-.22,1.67-.28.59-.06,1.17-.53,1.2-.64.03-.11-.89-.17-.97-.17.81-.58,2.84-1.95,2.95-2.06.11-.11-.45-.42-.19-.53.25-.11.98-.45.95-.56-.05-.11,1.87.06,2.01.03.17-.03.42-.84.75-1.09.45-.11,2.7-.14,2.73,0,.03.14-.75,1.12-.97,1.34-.22.22-1.78,2.2-1.87,2.34-.09.14-.53.84-.5.95.03.11.2,1.62-.03,1.95,0,.56.39,2.29.33,2.43-.06.14.75,2.59.73,2.93-.03.33-.28,1.84,0,1.98.28.14.39.22.39.22,0,0-1.5.25-1.84.33-.33.08-1.78.11-2.2.2-.42.08-1.87.67-1.98.72-.11.06-.08.25.08.33.17.08.73.25.84.11.11-.14.11.39.45.31.34-.08,1.01-.16,1.09-.16s.25.42.75.22c.5-.19,2.06-.31,2.26-.42.19-.11,1.87.08,2.2.22.34.14,2.2-.08,2.4-.42.19-.33.31-.64.31-.64,0,0,.78-.17.64-1.09-.14-.92-.25-1.62-.06-1.59.2.03.2-.64.14-.89-.06-.25-.61-2.12-.59-2.42.03-.31.11-.7.11-.7,0,0,.19.22.31.22s-.7-1.98-.25-2.42c.44-.45.61-.36,1.03-.59.42-.22,1.14-.56,1.48-.19.33.36-.2,1.2,2.14,2.26,2.26,1.14,4.77,2.65,5.3,4.26.2.61.09.7.09.7l.47.23c-.03.08-.39.89-.39,1.06s-.33,1.42-.61,1.48c-.28.05-1.89.03-2.09.17-.19.14-.44.67-.44.67,0,0,.42.25.89.2.42.08,1.51.45,2.51-.31.48-.06.09.39.78.06.7-.34.64-.84,1-1.28.36-.45,1.39-1.12,1.62-1.51s1.01-1.59,1.2-1.81c.2-.22.92-1.14.28-1.76.19-.36-.22-.73-.86-1.09-.61-.42-1.03-.98-1.09-1.14-.06-.17.14-.14.14-.22s-1.06-.89-1.06-.89l-.73-.36-1.39-1.17s.53-.03.67.03c.14.06-.75-.53-1.03-.75-.28-.22-.33-.36-.33-.36l.36-.14s-.78-.42-1.06-.75c-.28-.34-.84-.98-.42-1.59.25-1.06.45-2.03.53-2.09.08-.06.22.17.25.28.03.11.47-.95.36-1.34-.11-.39-.14-2.34-.11-2.51.03-.17.53-.78.64-.64.11.14-.22-1.2-.22-1.39s-.14-.89.06-.64c.2.25.14-.56-.11-1-.25-.45-.22-1.06-.22-1.06,0,0,.5-.03-.45-1.09-.17-.48-.03-.67-.03-.67,0,0-3.51-1.62-4.35-2.34-.87-.48-1.28-.75-1.73-.81-.45-.06-3.62-.7-4.38-1.23-.75-.53-2.87-2.42-5.3-3.21-2.29-.7-3.43-.92-3.43-.92l.2-.11s-2.03-.06-2.18-.28c-.14-.22.2-.36.2-.36l.33-.11s-.61-.06-.81-.06-2.06-.2-2.26-.39c-.19-.2-.11-.28.05-.28s.56-.03.56-.14.08-.17-.5-.2c-.58-.03-1.89-.36-2.15-.5-.25-.14-.31-.28-.14-.31.17-.03-.14-.19-.42-.34-.28-.14-1.98-.58-2.17-.95-.2-.36-1.48-.25-1.7-.22-.22.03-1.25.22-1.25.22l-.31-.05s-1.56.76-1.62,1.36"/><path class="cls-1" d="M27.52,35.74s.02.07,0,.09c-.01.03-.04.04-.08.05l-1.06.08s-.06,0-.08-.03c-.02-.02-.04-.04-.05-.07l-.64-1.53h-.01s-.44,1.61-.44,1.61c0,.03-.02.05-.04.07-.02.02-.05.03-.08.04l-1.03.07s-.07,0-.08-.03c-.01-.03-.02-.06,0-.09l.73-2.4-.97-2.08s-.02-.06,0-.09c.01-.03.04-.04.08-.05l1.05-.08c.07,0,.11.03.14.09l.55,1.37h.01l.37-1.44c.02-.07.06-.11.13-.11l1.02-.07s.06,0,.08.03c.02.03.02.06.01.09l-.67,2.19,1.07,2.27Z"/></g></svg>