<svg width="415" height="90" viewBox="0 0 415 90" fill="none" xmlns="http://www.w3.org/2000/svg">
<g clip-path="url(#clip0_226_2023)">
<path d="M116.937 82.8235V83.3756C116.937 86.0289 117.876 87.3823 119.824 87.3823C121.595 87.3823 122.481 85.833 122.481 84.2125C122.481 81.9153 121.542 80.9181 119.966 80.3304L118.053 79.5113C115.502 78.2826 114.386 76.6443 114.386 73.5279C114.386 69.5568 116.547 67.3665 119.842 67.3665C124.341 67.3665 124.819 70.8389 124.819 73.1005V73.5813H122.02V73.1183C122.02 71.1417 121.312 69.9664 119.558 69.9664C118.354 69.9664 117.203 70.7855 117.203 73.1183C117.203 74.9881 117.964 75.9319 119.842 76.8045L121.737 77.6593C124.217 78.7634 125.297 80.4373 125.297 83.429C125.297 88.0768 123.03 90 119.487 90C115.13 90 114.156 86.4029 114.156 83.3399V82.8235H116.955H116.937Z" fill="white"/>
<path d="M149.705 70.6966H145.525V67.7583H156.612V70.6966H152.503V89.5727H149.705V70.6966Z" fill="white"/>
<path d="M177.495 67.7761H183.695C186.157 67.7761 188.14 69.3076 188.14 73.4033C188.14 76.217 187.131 78.3717 185.218 78.7457V78.7991C186.971 79.0128 187.875 80.2059 187.981 83.251C187.999 84.6578 188.034 86.3673 188.087 87.6851C188.14 88.7536 188.548 89.27 188.92 89.5727H185.749C185.484 89.1809 185.36 88.5043 185.289 87.6495C185.183 86.3317 185.218 85.1208 185.165 83.5359C185.112 81.1497 184.527 80.1168 182.614 80.1168H180.329V89.5905H177.531V67.7939L177.495 67.7761ZM182.543 77.4813C184.332 77.4813 185.342 76.1457 185.342 73.9376C185.342 71.6226 184.527 70.3938 182.685 70.3938H180.294V77.4813H182.526H182.543Z" fill="white"/>
<path d="M209.997 67.7761H219.491V70.7144H212.796V76.7512H219.102V79.6895H212.796V86.6523H219.686V89.5905H209.997V67.7939V67.7761Z" fill="white"/>
<path d="M241.1 67.7761H250.594V70.7144H243.899V76.7512H250.204V79.6895H243.899V86.6523H250.789V89.5905H241.1V67.7939V67.7761Z" fill="white"/>
<path d="M275.108 70.6966H270.928V67.7583H282.016V70.6966H277.907V89.5727H275.108V70.6966Z" fill="white"/>
<path d="M301.588 67.7761H304.422L306.742 84.729H306.795L309.116 67.7761H312.074L314.429 84.8181H314.482L316.767 67.7761H319.548L316.059 89.5727H312.818L310.55 73.1362H310.497L308.265 89.5727H305.024L301.623 67.7761H301.588Z" fill="white"/>
<path d="M340.413 67.7761H349.907V70.7144H343.212V76.7512H349.517V79.6895H343.212V86.6523H350.102V89.5905H340.413V67.7939V67.7761Z" fill="white"/>
<path d="M374.846 67.7761H378.442L383.065 89.5727H380.142L379.062 84.2304H373.925L372.791 89.5727H369.869L374.864 67.7761H374.846ZM378.583 81.4524L376.564 70.6966H376.511L374.421 81.4524H378.583Z" fill="white"/>
<path d="M403.576 67.7761H409.775C412.237 67.7761 414.221 69.3076 414.221 73.4033C414.221 76.217 413.211 78.3717 411.298 78.7457V78.7991C413.052 79.0128 413.955 80.2059 414.061 83.251C414.079 84.6578 414.115 86.3673 414.168 87.6851C414.221 88.7536 414.628 89.27 415 89.5727H411.83C411.564 89.1809 411.44 88.5043 411.369 87.6495C411.263 86.3317 411.298 85.1208 411.245 83.5359C411.192 81.1497 410.607 80.1168 408.695 80.1168H406.41V89.5905H403.611V67.7939L403.576 67.7761ZM408.624 77.4813C410.413 77.4813 411.422 76.1457 411.422 73.9376C411.422 71.6226 410.607 70.3938 408.765 70.3938H406.374V77.4813H408.606H408.624Z" fill="white"/>
<path d="M7.22656 50.4314C7.22656 50.4314 7.24428 50.5026 7.2797 50.5382C7.24428 50.4314 7.22656 50.3779 7.22656 50.4314Z" fill="white"/>
<path d="M96.0717 74.2225C96.4968 73.4212 95.5757 72.602 94.1587 71.8007C92.7949 70.8747 91.8738 69.6281 91.7498 69.2542C91.6259 68.8802 92.051 68.9336 92.051 68.7556C92.051 68.5775 89.7129 66.7789 89.7129 66.7789L88.1011 65.9776L85.0192 63.3776C85.0192 63.3776 86.1882 63.3242 86.507 63.4489C86.8081 63.5735 84.842 62.2736 84.2221 61.7749C83.6022 61.2763 83.4782 60.9736 83.4782 60.9736L84.2752 60.6709C84.2752 60.6709 82.5571 59.7449 81.9372 58.997C81.3173 58.249 80.0951 56.8244 81.0162 55.4532C81.583 53.1026 82.0081 50.9301 82.1852 50.8054C82.3623 50.6808 82.6811 51.1794 82.7343 51.4287C82.7874 51.678 83.7793 49.3274 83.5313 48.4548C83.2834 47.5822 83.2302 43.255 83.2834 42.881C83.3542 42.507 84.4524 41.1537 84.7003 41.4564C84.9483 41.7591 84.2044 38.7852 84.2044 38.3579C84.2044 37.9305 83.9033 36.3812 84.3284 36.9332C84.7535 37.4853 84.6295 35.6867 84.0804 34.7073C83.5313 33.7101 83.5845 32.3567 83.5845 32.3567C83.5845 32.3567 84.7003 32.2854 82.5926 29.9348C82.2206 28.8842 82.5394 28.439 82.5394 28.439C82.5394 28.439 74.7637 24.8418 72.9216 23.2391C71.0087 22.1885 70.0877 21.5652 69.0958 21.4406C68.1039 21.3159 61.0721 19.8913 59.4248 18.716C57.7599 17.5407 53.0661 13.3203 47.717 11.5929C42.6513 10.0436 40.1361 9.54503 40.1361 9.54503L40.5612 9.29573C40.5612 9.29573 36.0623 9.17107 35.7435 8.67246C35.4423 8.17384 36.1685 7.87111 36.1685 7.87111L36.9125 7.6218C36.9125 7.6218 35.5663 7.49715 35.1235 7.49715C34.6807 7.49715 30.5537 7.06977 30.1286 6.62457C29.7035 6.19719 29.8807 6.00131 30.2526 6.00131C30.6246 6.00131 31.4925 5.93008 31.4925 5.69858C31.4925 5.46708 31.6873 5.32461 30.3766 5.27119C29.0836 5.19996 26.1788 4.46985 25.6297 4.14931C25.0806 3.84658 24.9566 3.52604 25.3286 3.47262C25.7006 3.40139 25.0098 3.04523 24.4076 2.72469C23.7876 2.42196 20.0326 1.42473 19.6075 0.623388C19.1647 -0.177958 16.3307 0.0713496 15.8348 0.124773C15.3388 0.196003 13.0539 0.623388 13.0539 0.623388L12.3809 0.498734C12.3809 0.498734 8.92698 2.19046 8.80299 3.50823C8.76756 3.84658 8.51959 4.50546 8.51959 4.50546C7.74025 4.71915 6.21699 5.19996 5.43765 7.47934C4.78229 8.72588 4.28634 9.33134 4.16236 9.33134C3.70184 9.29573 2.47969 9.36696 1.73577 10.8984C1.77119 11.771 2.23171 13.0531 2.51511 13.3381C2.67452 13.997 2.67452 14.8695 3.29445 15.1901C3.45386 15.9024 3.66641 16.4366 3.45386 16.8818C3.20589 17.5051 2.17858 19.2324 2.30256 19.7666C2.42655 20.3009 2.79851 21.1734 1.89518 22.2953C0.99185 23.4884 -0.726247 24.9843 0.283356 27.05C0.619891 27.4596 0.69074 27.8335 0.743877 28.1719C0.903288 28.6705 2.47969 32.5882 7.68711 31.4307C8.02365 31.5553 7.77567 32.143 7.77567 32.143C9.42292 31.3594 11.017 30.6115 11.2296 30.4156C11.6901 30.6649 11.7255 30.7896 11.7255 30.9499C12.0443 30.6115 12.2569 29.8814 13.0894 28.7951C13.4613 29.1335 13.7093 29.1691 13.9041 27.9226C13.975 26.6048 13.9041 26.2308 14.1167 26.1418C14.3292 26.0528 14.9846 25.8569 14.9846 26.4267C14.9846 27.05 14.0813 29.4896 14.0458 30.3444C14.0104 31.3772 13.4259 35.6867 13.1425 36.4702C12.7706 37.5031 11.4953 43.9851 11.3713 44.5727C11.1587 45.3207 9.44063 47.4042 9.81259 48.5795C10.1314 49.7548 9.63547 50.0041 9.3875 49.7013C9.13952 49.3986 8.76756 52.2478 8.76756 52.2478C8.76756 52.2478 7.5277 51.0013 7.27973 50.5739C7.386 51.0191 7.6694 52.4437 7.6694 52.9423C7.6694 53.5656 7.29744 56.3614 7.29744 56.6641C7.29744 56.9669 6.30555 56.2368 6.30555 56.2368C6.30555 56.2368 6.8015 58.2134 6.8015 58.6586C6.8015 59.1038 6.92548 61.4544 6.05758 61.0092C5.18967 60.5818 5.63248 61.9352 5.68562 62.2558C5.73876 62.5585 5.73876 67.7761 5.26052 68.7021C5.13654 70.0733 5.38451 70.9993 5.38451 71.3733C5.38451 71.7473 3.59556 76.3951 3.89667 76.769C3.59556 77.3923 3.2236 79.0662 3.52471 79.8675C3.40073 81.0429 3.40073 81.8442 3.40073 81.8442C2.7808 82.7168 1.61178 84.7469 1.31067 84.9962C1.00956 85.2455 0.69074 89.0919 5.56163 88.896C7.84652 88.4687 9.06867 87.2221 9.3875 85.9222C9.26351 85.1742 8.76757 85.5482 8.46646 85.6729C8.16535 85.7975 6.92548 86.7235 6.62437 86.7235C6.00444 86.4742 5.03026 86.0468 4.53432 86.0468C5.27823 85.1208 6.32326 84.9249 6.69522 84.2482C7.06718 83.5715 7.86424 82.325 8.04136 81.3456C8.23619 80.0456 8.34247 78.7991 8.66129 78.7991C8.9624 78.7457 9.8303 79.9744 9.65318 81.5949C9.77717 83.0907 10.4502 83.1442 10.4502 83.1442C10.4502 83.1442 11.2473 81.0963 11.4953 80.9716C11.6193 80.5977 12.1152 79.3689 11.0702 77.3745C10.6451 75.3266 10.5211 72.6554 11.0702 71.6048C11.6193 70.5541 13.2842 66.5296 13.2842 65.657C13.7093 64.6064 15.3211 62.6831 15.6222 62.3092C15.9233 61.9352 15.3743 61.3832 15.9942 61.0092C16.6141 60.6353 18.651 57.786 18.651 57.3586C18.651 56.9313 17.854 57.2874 17.6592 57.4121C17.4643 57.5367 17.9071 56.3614 18.2791 56.0587C18.651 55.756 19.023 55.1327 19.2001 55.1327C19.3773 55.1327 18.9522 53.2807 19.147 53.156C19.3241 53.0314 19.8201 51.5533 20.1389 51.1794C20.44 50.5561 21.981 47.8315 22.6009 48.2589C23.3448 47.6357 23.4688 45.0892 23.5928 44.9111C23.7168 44.7152 24.4607 44.8577 24.5847 45.0892C24.7087 45.3385 25.4526 41.6879 25.4526 41.2427C25.7006 40.2455 26.4976 36.773 26.4976 36.773C28.1626 38.1442 31.6696 43.896 32.5375 46.9412C31.9884 48.3658 30.7486 51.6602 30.5714 51.9629C30.3943 52.2657 29.6504 53.3341 29.6504 53.5122C29.6504 53.6903 29.5796 51.9629 29.5796 51.9629C29.5796 51.9629 28.7825 53.0136 28.6585 53.4588C28.5345 53.8862 27.6135 56.1833 27.4895 56.5039C27.3655 56.8066 26.9404 55.4532 26.8696 55.6313C26.7987 55.8094 26.0725 57.8573 25.8245 58.2312C25.5766 58.6052 24.2836 61.0805 23.8585 61.5791C23.4865 62.5763 20.5286 67.0994 19.7846 67.7227C19.0407 68.346 17.8717 72.1924 19.2887 74.5431C20.7057 76.8937 21.6976 80.6155 21.6976 80.9894C21.6976 81.3634 22.6895 83.5894 22.6895 83.9099C22.6895 84.2304 25.7183 86.8838 28.1803 85.655L28.8002 85.3345C28.8002 85.3345 29.5441 85.5838 30.5892 85.2099C31.6342 84.8359 33.9191 83.162 34.1139 82.0579C33.742 81.6839 33.122 81.5593 31.705 82.0579C32.077 80.2059 32.0239 79.3333 31.5279 79.3333C31.032 79.3333 30.2349 79.4046 30.1109 79.7607C29.9869 80.1347 29.6858 81.1853 29.367 81.2387C29.0659 81.2922 27.5249 80.562 27.153 80.7401C27.4541 79.1196 27.702 76.5197 26.1079 74.5431C24.7441 72.5664 23.823 71.0706 25.5411 69.3966C27.3832 68.1501 31.2799 66.4228 32.1478 65.3721C32.3958 64.5708 31.8467 64.5708 31.8467 64.5708C31.8467 64.5708 34.2556 64.0721 35.5486 63.9475C36.8416 63.8228 38.1346 62.7722 38.2055 62.5229C38.2763 62.2736 36.2394 62.1489 36.0446 62.1489C37.8335 60.849 42.3324 57.8038 42.5804 57.5545C42.8284 57.3052 41.5885 56.6285 42.1553 56.3792C42.7044 56.1299 44.3162 55.382 44.2454 55.1327C44.1214 54.8834 48.3723 55.2573 48.6912 55.1861C49.0631 55.1327 49.6122 53.3341 50.3561 52.7643C51.348 52.515 56.3429 52.4615 56.396 52.7643C56.4669 53.067 54.7311 55.2395 54.2351 55.7381C53.7392 56.2368 50.2853 60.6353 50.1082 60.938C49.9133 61.2407 48.9391 62.79 48.9923 63.0393C49.0454 63.2886 49.4174 66.6364 48.9214 67.3844C48.9214 68.6309 49.7893 72.4596 49.6653 72.7801C49.5414 73.0828 51.3303 78.5498 51.2595 79.2977C51.1886 80.0456 50.6395 83.3935 51.2595 83.6962C51.8794 83.9989 52.1274 84.1948 52.1274 84.1948C52.1274 84.1948 48.7974 84.7469 48.0535 84.9427C47.3096 85.1386 44.1037 85.192 43.1826 85.3701C42.2616 85.5482 39.0557 86.866 38.8077 86.9906C38.5597 87.1153 38.6128 87.5427 38.9848 87.7385C39.3568 87.9166 40.5966 88.2906 40.8269 87.9879C41.0749 87.6851 41.0749 88.8604 41.8188 88.6645C42.5627 88.4865 44.0328 88.2906 44.2277 88.2906C44.4225 88.2906 44.7767 89.2166 45.8926 88.7892C47.0085 88.3618 50.4624 88.1125 50.8875 87.8632C51.3126 87.6139 55.0145 88.0591 55.7584 88.3618C56.5023 88.6645 60.6293 88.1837 61.0544 87.4358C61.4795 86.6879 61.7274 86.0112 61.7274 86.0112C61.7274 86.0112 63.4455 85.6372 63.1444 83.5894C62.8256 81.5415 62.5953 79.9922 63.0204 80.0456C63.4455 80.1169 63.4455 78.621 63.3216 78.069C63.1976 77.5169 61.9577 73.3678 62.0286 72.6733C62.0817 71.9966 62.2765 71.124 62.2765 71.124C62.2765 71.124 62.7016 71.6226 62.9496 71.6226C63.1976 71.6226 61.4086 67.2241 62.4005 66.2269C63.3924 65.2296 63.7644 65.4255 64.6854 64.9269C65.6064 64.4283 67.2183 63.6804 67.9622 64.4995C68.7061 65.3009 67.5371 67.1707 72.7091 69.5213C77.704 72.0678 83.2479 75.4156 84.4169 79.0128C84.842 80.384 84.6118 80.5621 84.6118 80.5621L85.6568 81.0607C85.586 81.2387 84.7889 83.0373 84.7889 83.4113C84.7889 83.7852 84.045 86.581 83.4428 86.6879C82.8228 86.8125 79.2449 86.7591 78.8198 87.0619C78.3947 87.3646 77.828 88.5577 77.828 88.5577C77.828 88.5577 78.749 89.1097 79.794 88.9851C80.7151 89.181 83.1239 89.9823 85.338 88.3084C86.383 88.1837 85.5151 89.181 87.0561 88.433C88.5971 87.6851 88.4731 86.581 89.2701 85.5838C90.0672 84.5866 92.3521 83.1085 92.848 82.236C93.344 81.3634 95.0621 78.71 95.5049 78.2114C95.93 77.7128 97.5418 75.6649 96.1248 74.3116L96.0717 74.2225ZM60.895 79.7073C60.895 79.7073 60.8064 79.7963 60.7178 79.8141L58.3798 79.9744C58.3798 79.9744 58.2558 79.9744 58.2027 79.921C58.1496 79.8854 58.1141 79.8319 58.0964 79.7785L56.6794 76.3772H56.644L55.6698 79.9566C55.6698 80.01 55.6167 80.0634 55.5813 80.1169C55.5281 80.1703 55.475 80.1881 55.4041 80.1881L53.1192 80.3484C53.0307 80.3484 52.9776 80.3306 52.9421 80.2771C52.9067 80.2237 52.9067 80.1525 52.9421 80.0634L54.5717 74.7211L52.4108 70.1089C52.4108 70.1089 52.3753 69.9665 52.4108 69.8953C52.4462 69.824 52.4993 69.8062 52.5879 69.7884L54.9082 69.6281C55.0499 69.6281 55.1562 69.6816 55.227 69.824L56.4315 72.8691H56.4669L57.2994 69.6816C57.3348 69.5213 57.4233 69.4501 57.5828 69.4323L59.8322 69.272C59.8322 69.272 59.9739 69.2898 60.0093 69.3432C60.0448 69.3966 60.0625 69.4679 60.0448 69.5569L58.5746 74.4362L60.9304 79.4936C60.9304 79.4936 60.9658 79.636 60.9304 79.7073H60.895Z" fill="white"/>
<path d="M158.986 53.8684C159.181 54.3848 159.128 54.8478 158.844 55.2396C158.543 55.6314 158.136 55.8272 157.622 55.8272H143.275C142.567 55.8272 141.982 55.6314 141.575 55.2396C141.15 54.8478 140.866 54.3848 140.742 53.8684L136.155 38.7497H135.96L130.398 53.8684C130.203 54.3848 129.902 54.8478 129.513 55.2396C129.123 55.6314 128.574 55.8272 127.848 55.8272H114.475C113.961 55.8272 113.554 55.6314 113.253 55.2396C112.952 54.8478 112.916 54.3848 113.111 53.8684L122.87 28.8308L113.979 6.05479C113.784 5.53837 113.855 5.02194 114.174 4.54114C114.493 4.04252 114.918 3.81102 115.449 3.81102H129.513C130.097 3.81102 130.611 3.91787 131.071 4.14937C131.532 4.38087 131.815 4.75483 131.957 5.27125L135.96 19.0188H136.155L141.132 5.27125C141.451 4.29183 142.265 3.79321 143.576 3.79321H156.666C157.179 3.79321 157.604 4.04252 157.941 4.52333C158.26 5.02194 158.331 5.52056 158.136 6.03698L149.244 28.813L159.004 53.8506L158.986 53.8684Z" fill="white"/>
<path d="M274.789 54.367C274.789 55.3464 274.293 55.845 273.319 55.845H258.671C257.697 55.845 257.201 55.3464 257.201 54.367V21.7789C257.201 20.8707 256.935 20.2474 256.421 19.9091C255.908 19.5886 255.182 19.5529 254.278 19.8201L250.86 20.7995V54.367C250.86 55.3464 250.364 55.845 249.39 55.845H234.742C233.767 55.845 233.271 55.3464 233.271 54.367V21.7789C233.271 20.8707 233.006 20.2474 232.492 19.9091C231.978 19.5886 231.252 19.5529 230.349 19.8201L226.93 20.7995V54.367C226.93 55.3464 226.434 55.845 225.46 55.845H210.812C209.838 55.845 209.342 55.3464 209.342 54.367V5.7698C209.342 5.37803 209.484 4.98626 209.785 4.59449C210.086 4.20272 210.458 4.00684 210.901 4.00684L222.219 3.50822C222.609 3.50822 222.963 3.65069 223.299 3.95342C223.618 4.25615 223.848 4.59449 223.99 4.98626L225.938 12.1449L232.97 5.7698C233.82 5.05749 234.865 4.43422 236.088 3.89999C237.328 3.38357 238.497 3.11646 239.595 3.11646H241.543C244.607 3.11646 246.804 3.88219 248.132 5.43145C249.46 6.96291 250.293 9.11764 250.629 11.86L256.882 5.7698C257.661 4.98626 258.689 4.34519 259.964 3.86438C261.239 3.36576 262.426 3.13426 263.524 3.13426H265.472C267.297 3.13426 268.802 3.43699 270.007 4.02465C271.211 4.6123 272.15 5.44926 272.841 6.53553C273.532 7.6218 274.01 8.90395 274.311 10.4176C274.612 11.9313 274.754 13.5874 274.754 15.4216V54.3848L274.789 54.367Z" fill="white"/>
<path d="M323.604 44.4481C323.604 48.1699 322.577 51.0725 320.522 53.1382C318.468 55.2039 315.598 56.2368 311.879 56.2368H292.838C289.136 56.2368 286.249 55.2039 284.194 53.1382C282.14 51.0725 281.113 48.1877 281.113 44.4481V15.2079C281.113 11.4861 282.14 8.58342 284.194 6.51773C286.249 4.45203 289.119 3.41919 292.838 3.41919H311.879C315.581 3.41919 318.468 4.45203 320.522 6.51773C322.577 8.58342 323.604 11.4683 323.604 15.2079V44.4659V44.4481ZM306.317 17.6475C306.317 17.2558 306.175 16.9174 305.874 16.6325C305.573 16.3476 305.237 16.1873 304.847 16.1873H299.87C299.48 16.1873 299.144 16.3298 298.843 16.6325C298.541 16.9174 298.4 17.2736 298.4 17.6475V42.0084C298.4 42.4002 298.541 42.7385 298.843 43.0235C299.144 43.3084 299.48 43.4687 299.87 43.4687H304.847C305.237 43.4687 305.573 43.3262 305.874 43.0235C306.175 42.7385 306.317 42.3824 306.317 42.0084V17.6475Z" fill="white"/>
<path d="M371.924 6.07262L361.668 54.2602C361.544 54.652 361.261 55.0081 360.836 55.3465C360.411 55.667 359.968 55.8451 359.525 55.8451H338.341C337.88 55.8451 337.455 55.7204 337.066 55.4533C336.676 55.1862 336.41 54.83 336.286 54.367L326.031 6.07262C325.907 5.5562 325.996 5.03978 326.332 4.55897C326.651 4.06036 327.147 3.82886 327.802 3.82886H341.476C342.716 3.82886 343.424 4.41651 343.619 5.59182L346.347 24.4323C346.666 26.8542 346.985 29.187 347.268 31.4486C347.569 33.7101 347.835 35.6868 348.1 37.3963C348.366 39.4264 348.614 41.3318 348.88 43.0948H349.075C349.34 41.3318 349.588 39.4264 349.854 37.3963C350.12 35.6868 350.385 33.7101 350.687 31.4486C350.988 29.187 351.289 26.8542 351.608 24.4323L354.335 5.59182C354.53 4.41651 355.239 3.82886 356.478 3.82886H370.152C370.808 3.82886 371.286 4.07816 371.622 4.55897C371.941 5.05759 372.048 5.5562 371.924 6.07262Z" fill="white"/>
<path d="M414.894 26.0884C414.894 28.5102 414.398 30.2554 413.424 31.3416C412.449 32.4279 411.05 33.1224 409.226 33.4607L391.655 36.7017V40.6372C391.655 41.029 391.797 41.3673 392.098 41.6701C392.399 41.9728 392.736 42.1153 393.125 42.1153H412.945C413.92 42.1153 414.416 42.6139 414.416 43.5933V54.0998C414.416 55.0793 413.92 55.5779 412.945 55.5779L393.125 56.1655H387.068C382.905 56.1655 379.752 55.2039 377.592 53.2629C375.448 51.3396 374.368 48.2767 374.368 44.0919V15.2079C374.368 11.4861 375.395 8.58342 377.45 6.51773C379.505 4.45203 382.374 3.41919 386.093 3.41919H403.186C406.888 3.41919 409.775 4.45203 411.829 6.51773C413.884 8.58342 414.911 11.4683 414.911 15.2079V26.1062L414.894 26.0884ZM399.75 17.6475C399.75 17.2558 399.608 16.9174 399.307 16.6147C399.006 16.3119 398.669 16.1695 398.28 16.1695H393.108C392.718 16.1695 392.381 16.3119 392.08 16.6147C391.779 16.9174 391.637 17.2558 391.637 17.6475V26.676L398.28 25.5007C399.254 25.3048 399.75 24.7528 399.75 23.8268V17.6475Z" fill="white"/>
<path d="M166.673 20.105H198.732C199.476 20.105 200.096 20.7104 200.096 21.4762V33.6922C200.096 34.4402 199.494 35.0634 198.732 35.0634H166.673C165.929 35.0634 165.309 34.458 165.309 33.6922V21.4762C165.309 20.7282 165.911 20.105 166.673 20.105Z" fill="white"/>
</g>
<defs>
<clipPath id="clip0_226_2023">
<rect width="415" height="90" fill="white"/>
</clipPath>
</defs>
</svg>
